<svg xmlns="http://www.w3.org/2000/svg" viewBox="0 0 200 200" width="200" height="200">
  <!-- Background Circle -->
  <circle cx="100" cy="100" r="90" fill="#E8F5E9"/>
  
  <!-- Dumbbell -->
  <rect x="40" y="95" width="120" height="10" rx="5" ry="5" fill="#9E9E9E"/>
  
  <!-- Dumbbell Weights Left -->
  <rect x="25" y="85" width="15" height="30" rx="2" ry="2" fill="#4CAF50"/>
  <rect x="15" y="90" width="10" height="20" rx="2" ry="2" fill="#4CAF50"/>
  
  <!-- Dumbbell Weights Right -->
  <rect x="160" y="85" width="15" height="30" rx="2" ry="2" fill="#4CAF50"/>
  <rect x="175" y="90" width="10" height="20" rx="2" ry="2" fill="#4CAF50"/>
  
  <!-- Heart Rate Monitor -->
  <path d="M70 60 Q80 40 90 60 Q100 80 110 60 Q120 40 130 60" stroke="#F44336" stroke-width="3" fill="none"/>
  
  <!-- Person Silhouette -->
  <circle cx="100" cy="140" r="10" fill="#333333"/>
  <line x1="100" y1="150" x2="100" y2="170" stroke="#333333" stroke-width="5"/>
  <line x1="100" y1="155" x2="85" y2="165" stroke="#333333" stroke-width="5"/>
  <line x1="100" y1="155" x2="115" y2="165" stroke="#333333" stroke-width="5"/>
  <line x1="100" y1="170" x2="90" y2="185" stroke="#333333" stroke-width="5"/>
  <line x1="100" y1="170" x2="110" y2="185" stroke="#333333" stroke-width="5"/>
  
  <!-- Energy Symbol -->
  <path d="M140 140 L130 160 L140 155 L130 175" stroke="#FFA000" stroke-width="3" fill="none"/>
  <path d="M60 140 L70 160 L60 155 L70 175" stroke="#FFA000" stroke-width="3" fill="none"/>
</svg>